<?xml version="1.0" encoding="UTF-8" standalone="no"?>
<!DOCTYPE svg PUBLIC "-//W3C//DTD SVG 1.1//EN" "http://www.w3.org/Graphics/SVG/1.1/DTD/svg11.dtd">
<!-- Created with Vectornator (http://vectornator.io/) -->
<svg height="100%" stroke-miterlimit="10" style="fill-rule:nonzero;clip-rule:evenodd;stroke-linecap:round;stroke-linejoin:round;" version="1.1" viewBox="0 0 400 900" width="100%" xml:space="preserve" xmlns="http://www.w3.org/2000/svg" xmlns:vectornator="http://vectornator.io" xmlns:xlink="http://www.w3.org/1999/xlink">
<defs/>
<path d="M0 0L400 0L400 900L0 900L0 0Z" fill="#01762a" fill-rule="nonzero" opacity="1" stroke="none" vectornator:artboardBackground="true"/>
<g id="Calque-1" vectornator:layerName="Calque 1">
<path d="M180.565 332.306C180.565 332.306 170.811 345.789 174.34 354.787C174.34 354.787 186.299 362.373 189.924 368.535C189.924 368.535 190.491 356.898 196.507 348.786C196.507 348.786 191.183 337.119 180.565 332.306ZM219.435 332.306C208.817 337.119 203.493 348.786 203.493 348.786C209.509 356.898 210.076 368.535 210.076 368.535C213.701 362.373 225.66 354.787 225.66 354.787C229.189 345.789 219.435 332.306 219.435 332.306ZM144.246 350.533C144.246 350.533 142.385 367.056 149.889 373.148C149.889 373.148 164.03 373.824 170.22 377.402C170.22 377.402 164.995 367.004 166.234 356.981C166.234 356.981 155.857 349.49 144.246 350.533ZM255.754 351.07C244.143 350.028 233.766 357.563 233.766 357.563C235.005 367.586 229.78 377.939 229.78 377.939C235.97 374.362 250.111 373.685 250.111 373.685C257.615 367.593 255.754 351.07 255.754 351.07ZM199.552 355.862C192.587 370.003 199.687 389.986 199.687 389.986C209.089 371.663 199.552 355.862 199.552 355.862ZM173.579 362.713C173.579 362.713 173.548 381.226 191.044 392.09C191.044 392.09 186.831 371.248 173.579 362.713ZM226.421 362.713C213.168 371.248 208.956 392.09 208.956 392.09C226.452 381.226 226.421 362.713 226.421 362.713ZM144.873 379.596C144.873 379.596 138.81 379.737 124.273 387.254C124.273 387.254 146.762 422.649 186.073 406.018C186.073 406.018 152.864 402.135 144.873 379.596ZM255.127 380.134C247.136 402.673 213.927 406.555 213.927 406.555C253.238 423.186 275.727 387.791 275.727 387.791C261.19 380.275 255.127 380.134 255.127 380.134ZM155.397 380.984C155.397 380.984 164.466 397.058 185.043 397.912C185.043 397.912 171.134 381.897 155.397 380.984ZM244.603 381.522C228.866 382.434 214.957 398.494 214.957 398.494C235.534 397.64 244.603 381.522 244.603 381.522Z" fill="#ffffff" fill-rule="nonzero" opacity="1" stroke="none" vectornator:layerName="Courbe 1"/>
<g fill="#ffffff" opacity="1" stroke="none" vectornator:layerName="Texte 1">
<path d="M153.608 433.744L157.304 438.256C157.512 438.48 157.616 438.752 157.616 439.072C157.616 439.408 157.504 439.692 157.28 439.924C157.056 440.156 156.776 440.272 156.44 440.272C156.072 440.272 155.752 440.112 155.48 439.792L150.968 434.08L148.064 434.08L148.064 439.024C148.064 439.392 147.94 439.704 147.692 439.96C147.444 440.216 147.144 440.344 146.792 440.344C146.424 440.344 146.112 440.216 145.856 439.96C145.6 439.704 145.472 439.392 145.472 439.024L145.472 424.816C145.472 424.416 145.608 424.08 145.88 423.808C146.152 423.536 146.488 423.4 146.888 423.4L151.28 423.4C153.104 423.4 154.584 423.904 155.72 424.912C156.84 425.92 157.4 427.192 157.4 428.728C157.4 429.944 157.064 430.992 156.392 431.872C155.72 432.752 154.792 433.376 153.608 433.744ZM151.184 425.632L148.064 425.632L148.064 431.848L151.184 431.848C153.648 431.848 154.88 430.808 154.88 428.728C154.88 427.72 154.552 426.952 153.896 426.424C153.24 425.896 152.336 425.632 151.184 425.632Z"/>
<path d="M164.408 427.576C165.288 427.576 166.084 427.784 166.796 428.2C167.508 428.616 168.024 429.176 168.344 429.88L168.344 428.92C168.344 428.568 168.468 428.268 168.716 428.02C168.964 427.772 169.264 427.648 169.616 427.648C169.968 427.648 170.272 427.772 170.528 428.02C170.784 428.268 170.912 428.568 170.912 428.92L170.912 439.072C170.912 439.424 170.784 439.724 170.528 439.972C170.272 440.22 169.968 440.344 169.616 440.344C169.264 440.344 168.964 440.22 168.716 439.972C168.468 439.724 168.344 439.424 168.344 439.072L168.344 437.776C168.248 438.4 167.832 438.984 167.096 439.528C166.344 440.088 165.448 440.368 164.408 440.368C163.448 440.368 162.544 440.144 161.696 439.696C160.784 439.232 160.032 438.492 159.44 437.476C158.848 436.46 158.552 435.288 158.552 433.96C158.552 432.936 158.732 432.008 159.092 431.176C159.452 430.344 159.92 429.672 160.496 429.16C161.072 428.648 161.7 428.256 162.38 427.984C163.06 427.712 163.736 427.576 164.408 427.576ZM164.816 438.184C165.76 438.184 166.6 437.824 167.336 437.104C168.088 436.384 168.464 435.336 168.464 433.96C168.464 432.584 168.088 431.544 167.336 430.84C166.6 430.12 165.76 429.76 164.816 429.76C163.824 429.76 162.96 430.128 162.224 430.864C161.472 431.616 161.096 432.648 161.096 433.96C161.096 435.288 161.472 436.328 162.224 437.08C162.96 437.816 163.824 438.184 164.816 438.184Z"/>
<path d="M180.632 427.6C181.928 427.6 183.024 428.048 183.92 428.944C184.8 429.824 185.24 431.224 185.24 433.144L185.24 439.048C185.24 439.4 185.12 439.7 184.88 439.948C184.64 440.196 184.344 440.32 183.992 440.32C183.64 440.32 183.34 440.196 183.092 439.948C182.844 439.7 182.72 439.4 182.72 439.048L182.72 433.144C182.72 432.04 182.452 431.204 181.916 430.636C181.38 430.068 180.672 429.784 179.792 429.784C178.768 429.784 177.96 430.128 177.368 430.816C176.776 431.504 176.432 432.192 176.336 432.88L176.336 439.048C176.336 439.4 176.212 439.7 175.964 439.948C175.716 440.196 175.416 440.32 175.064 440.32C174.712 440.32 174.412 440.196 174.164 439.948C173.916 439.7 173.792 439.4 173.792 439.048L173.792 428.944C173.792 428.592 173.916 428.288 174.164 428.032C174.412 427.776 174.712 427.648 175.064 427.648C175.416 427.648 175.716 427.776 175.964 428.032C176.212 428.288 176.336 428.592 176.336 428.944L176.336 430.528C176.4 429.968 176.832 429.336 177.632 428.632C178.416 427.944 179.416 427.6 180.632 427.6Z"/>
<path d="M198.704 423.064C199.056 423.064 199.36 423.188 199.616 423.436C199.872 423.684 200 423.984 200 424.336L200 439.072C200 439.424 199.872 439.724 199.616 439.972C199.36 440.22 199.056 440.344 198.704 440.344C198.352 440.344 198.052 440.22 197.804 439.972C197.556 439.724 197.432 439.424 197.432 439.072L197.432 437.776C197.336 438.4 196.92 438.984 196.184 439.528C195.432 440.088 194.536 440.368 193.496 440.368C192.536 440.368 191.632 440.144 190.784 439.696C189.872 439.232 189.12 438.492 188.528 437.476C187.936 436.46 187.64 435.288 187.64 433.96C187.64 432.936 187.82 432.008 188.18 431.176C188.54 430.344 189.008 429.672 189.584 429.16C190.16 428.648 190.788 428.256 191.468 427.984C192.148 427.712 192.824 427.576 193.496 427.576C194.376 427.576 195.172 427.784 195.884 428.2C196.596 428.616 197.112 429.176 197.432 429.88L197.432 428.92C197.432 428.792 197.44 428.712 197.456 428.68L197.456 424.336C197.456 423.984 197.58 423.684 197.828 423.436C198.076 423.188 198.368 423.064 198.704 423.064ZM193.904 438.184C194.848 438.184 195.688 437.824 196.424 437.104C197.176 436.384 197.552 435.336 197.552 433.96C197.552 432.584 197.176 431.544 196.424 430.84C195.688 430.12 194.848 429.76 193.904 429.76C192.912 429.76 192.048 430.128 191.312 430.864C190.56 431.616 190.184 432.648 190.184 433.96C190.184 435.288 190.56 436.328 191.312 437.08C192.048 437.816 192.912 438.184 193.904 438.184Z"/>
<path d="M208.712 427.576C209.432 427.576 210.152 427.712 210.872 427.984C211.592 428.256 212.268 428.648 212.9 429.16C213.532 429.672 214.048 430.348 214.448 431.188C214.848 432.028 215.048 432.96 215.048 433.984C215.048 435.008 214.848 435.94 214.448 436.78C214.048 437.62 213.532 438.292 212.9 438.796C212.268 439.3 211.592 439.688 210.872 439.96C210.152 440.232 209.432 440.368 208.712 440.368C207.704 440.368 206.744 440.144 205.832 439.696C204.904 439.248 204.096 438.52 203.408 437.512C202.736 436.504 202.4 435.328 202.4 433.984C202.4 432.64 202.736 431.464 203.408 430.456C204.064 429.496 204.856 428.776 205.784 428.296C206.712 427.816 207.688 427.576 208.712 427.576ZM206.048 430.912C205.296 431.664 204.92 432.688 204.92 433.984C204.92 435.28 205.304 436.296 206.072 437.032C206.856 437.784 207.736 438.16 208.712 438.16C209.704 438.16 210.592 437.784 211.376 437.032C212.144 436.296 212.528 435.28 212.528 433.984C212.528 432.688 212.144 431.664 211.376 430.912C210.592 430.16 209.704 429.784 208.712 429.784C207.72 429.784 206.832 430.16 206.048 430.912Z"/>
<path d="M218.576 423.4L227.024 423.4C227.792 423.4 228.344 423.704 228.68 424.312C229.032 424.904 228.976 425.52 228.512 426.16L219.728 437.896L227.816 437.896C228.136 437.896 228.408 438.008 228.632 438.232C228.856 438.456 228.968 438.728 228.968 439.048C228.968 439.368 228.856 439.64 228.632 439.864C228.408 440.088 228.136 440.2 227.816 440.2L218.84 440.2C218.088 440.2 217.528 439.896 217.16 439.288C216.824 438.696 216.888 438.08 217.352 437.44L226.136 425.704L218.576 425.704C218.256 425.704 217.984 425.592 217.76 425.368C217.536 425.144 217.424 424.872 217.424 424.552C217.424 424.232 217.536 423.96 217.76 423.736C217.984 423.512 218.256 423.4 218.576 423.4Z"/>
<path d="M235.136 427.576C236.64 427.576 238.016 428.128 239.264 429.232C240.528 430.304 241.16 431.744 241.16 433.552C241.16 434.464 240.632 434.92 239.576 434.92L231.536 434.896C231.664 435.936 232.092 436.752 232.82 437.344C233.548 437.936 234.432 438.232 235.472 438.232C236.32 438.232 237.12 438 237.872 437.536C238.336 437.28 238.672 437.152 238.88 437.152C239.152 437.152 239.368 437.236 239.528 437.404C239.688 437.572 239.768 437.792 239.768 438.064C239.768 438.432 239.552 438.792 239.12 439.144C238.176 439.928 236.928 440.32 235.376 440.32C234.288 440.32 233.264 440.104 232.304 439.672C231.312 439.224 230.5 438.496 229.868 437.488C229.236 436.48 228.92 435.312 228.92 433.984C228.92 432.976 229.108 432.044 229.484 431.188C229.86 430.332 230.368 429.656 231.008 429.16C232.288 428.104 233.664 427.576 235.136 427.576ZM231.536 433.072L238.688 433.072C238.592 432.048 238.208 431.244 237.536 430.66C236.864 430.076 236.064 429.784 235.136 429.784C234.256 429.784 233.456 430.072 232.736 430.648C232.032 431.208 231.632 432.016 231.536 433.072Z"/>
<path d="M249.92 427.6C251.216 427.6 252.312 428.048 253.208 428.944C254.088 429.824 254.528 431.224 254.528 433.144L254.528 439.048C254.528 439.4 254.408 439.7 254.168 439.948C253.928 440.196 253.632 440.32 253.28 440.32C252.928 440.32 252.628 440.196 252.38 439.948C252.132 439.7 252.008 439.4 252.008 439.048L252.008 433.144C252.008 432.04 251.74 431.204 251.204 430.636C250.668 430.068 249.96 429.784 249.08 429.784C248.056 429.784 247.248 430.128 246.656 430.816C246.064 431.504 245.72 432.192 245.624 432.88L245.624 439.048C245.624 439.4 245.5 439.7 245.252 439.948C245.004 440.196 244.704 440.32 244.352 440.32C244 440.32 243.7 440.196 243.452 439.948C243.204 439.7 243.08 439.4 243.08 439.048L243.08 428.944C243.08 428.592 243.204 428.288 243.452 428.032C243.7 427.776 244 427.648 244.352 427.648C244.704 427.648 245.004 427.776 245.252 428.032C245.5 428.288 245.624 428.592 245.624 428.944L245.624 430.528C245.688 429.968 246.12 429.336 246.92 428.632C247.704 427.944 248.704 427.6 249.92 427.6Z"/>
</g>
</g>
</svg>
