<?xml version="1.0" encoding="UTF-8" standalone="no"?>
<!DOCTYPE svg PUBLIC "-//W3C//DTD SVG 1.1//EN" "http://www.w3.org/Graphics/SVG/1.1/DTD/svg11.dtd">
<!-- Created with Vectornator (http://vectornator.io/) -->
<svg height="100%" stroke-miterlimit="10" style="fill-rule:nonzero;clip-rule:evenodd;stroke-linecap:round;stroke-linejoin:round;" version="1.1" viewBox="0 0 500 500" width="100%" xml:space="preserve" xmlns="http://www.w3.org/2000/svg" xmlns:vectornator="http://vectornator.io" xmlns:xlink="http://www.w3.org/1999/xlink">
<defs/>
<g id="Calque-1" vectornator:layerName="Calque 1">
<path d="M199.095 146.943C199.095 146.943 173.548 182.258 182.791 205.824C182.791 205.824 214.116 225.693 223.609 241.833C223.609 241.833 225.095 211.354 240.851 190.107C240.851 190.107 226.906 159.549 199.095 146.943ZM300.905 146.943C273.094 159.549 259.149 190.107 259.149 190.107C274.905 211.354 276.391 241.833 276.391 241.833C285.884 225.693 317.209 205.824 317.209 205.824C326.452 182.258 300.905 146.943 300.905 146.943ZM103.971 194.681C103.971 194.681 99.0967 237.958 118.75 253.914C118.75 253.914 155.788 255.687 172 265.057C172 265.057 158.316 237.823 161.561 211.572C161.561 211.572 134.383 191.952 103.971 194.681ZM396.029 196.089C365.617 193.36 338.439 213.096 338.439 213.096C341.684 239.348 328 266.465 328 266.465C344.212 257.094 381.25 255.322 381.25 255.322C400.903 239.366 396.029 196.089 396.029 196.089ZM248.827 208.639C230.584 245.677 249.179 298.016 249.179 298.016C273.805 250.025 248.827 208.639 248.827 208.639ZM180.797 226.585C180.797 226.585 180.717 275.073 226.541 303.529C226.541 303.529 215.509 248.938 180.797 226.585ZM319.203 226.585C284.491 248.938 273.459 303.529 273.459 303.529C319.283 275.073 319.203 226.585 319.203 226.585ZM105.613 270.804C105.613 270.804 89.7335 271.174 51.6582 290.861C51.6582 290.861 110.561 383.567 213.522 340.007C213.522 340.007 126.543 329.839 105.613 270.804ZM394.387 272.212C373.456 331.246 286.478 341.415 286.478 341.415C389.439 384.974 448.342 292.269 448.342 292.269C410.267 272.581 394.387 272.212 394.387 272.212ZM133.177 274.44C133.177 274.44 156.93 316.54 210.824 318.777C210.824 318.777 174.394 276.83 133.177 274.44ZM366.823 275.848C325.606 278.237 289.176 320.302 289.176 320.302C343.07 318.065 366.823 275.848 366.823 275.848Z" fill="#ffffff" fill-rule="nonzero" opacity="1" stroke="none" vectornator:layerName="Courbe 1"/>
</g>
</svg>
